<?xml version="1.0" encoding="iso-8859-1"?>
<!-- Uploaded to: SVG Repo, www.svgrepo.com, Generator: SVG Repo Mixer Tools -->
<svg fill="#ffffff" height="800px" width="800px" version="1.1" id="Layer_1" xmlns="http://www.w3.org/2000/svg" xmlns:xlink="http://www.w3.org/1999/xlink" 
	 viewBox="0 0 496 496" xml:space="preserve">
<g>
	<g>
		<path d="M496,344V216h-24.2C467.56,96.184,368.832,0,248,0S28.44,96.184,24.2,216H0v128h16v136H0v16h496v-16h-16V344H496z
			 M455.792,216h-66.856l43.752-87.496C446.384,154.896,454.6,184.552,455.792,216z M375.776,206.568L325.336,112h97.72
			L375.776,206.568z M197.336,112h101.328L248,206.992L197.336,112z M234.664,216H133.336L184,121.008L234.664,216z M312,121.008
			L362.664,216H261.336L312,121.008z M411.776,96h-86.184l28.296-50.928C376.216,58.328,395.832,75.648,411.776,96z M339.84,37.432
			l-27.464,49.424L278.048,18.2C299.928,21.384,320.704,27.976,339.84,37.432z M248,16c3.76,0,7.496,0.112,11.208,0.312L299.056,96
			H196.944l39.848-79.688C240.504,16.112,244.24,16,248,16z M217.96,18.2l-34.336,68.656l-27.456-49.424
			C175.304,27.976,196.08,21.376,217.96,18.2z M142.112,45.072L170.408,96H84.224C100.168,75.648,119.784,58.328,142.112,45.072z
			 M170.664,112l-50.432,94.568L72.944,112H170.664z M63.312,128.504L107.056,216H40.2C41.4,184.56,49.608,154.896,63.312,128.504z
			 M48,480H32V344h16V480z M144,480H64V344h80V480z M176,480h-16V344h16V480z M240,416h-16v16h16v48h-48V376h48V416z M304,480h-48
			v-48h16v-16h-16v-40h48V480z M304,360H192v-16h112V360z M336,480h-16V344h16V480z M432,480h-80V344h80V480z M464,480h-16V344h16
			V480z M16,328v-64h432v-16H16v-16h464v16h-16v16h16v64H16z"/>
	</g>
</g>
</svg>